# xmcd CD database file
#
# Track frame offsets:
#	150
#	30692
#	42928
#	91650
#	146654
#	173864
#	213849
#	224565
#	244813
#
# Disc length: 3687 seconds
#
# Revision: 0
# Processed by: cddbd v1.5.2PL0 Copyright (c) Steve Scherf et al.
# Submitted via: CDex 1.89
#
DISCID=7d0e6509
DTITLE=Clarion Fracture Zone - Canticle
DYEAR=2002
DGENRE=Jazz
TTITLE0=Animus Part 1
TTITLE1=Animus Part 2
TTITLE2=Stirring The Waters
TTITLE3=Darkness Falling As A Stone
TTITLE4=Your Touch On My Skin
TTITLE5=Soul Of Solomon
TTITLE6=Till We Fulfill Our Love
TTITLE7=Kogoto Obicha Dushata Mi Part 1
TTITLE8=Kogoto Obicha Dushata Mi Finale
EXTD=YEAR: 2002
EXTT0=
EXTT1=
EXTT2=
EXTT3=
EXTT4=
EXTT5=
EXTT6=
EXTT7=
EXTT8=
PLAYORDER=
